<svg width="236.000000" height="114.000000" viewBox="0 0 236 114" fill="none" xmlns="http://www.w3.org/2000/svg" xmlns:xlink="http://www.w3.org/1999/xlink">
	<desc>
			Created with Pixso.
	</desc>
	<defs/>
	<rect width="236.000000" height="114.000000" fill="#FFFFFF" fill-opacity="0"/>
	<path d="M228.56 27.77C227.75 27.77 227.17 27.6 226.8 27.25C226.43 26.9 226.24 26.45 226.24 25.91C226.24 25.83 226.27 25.77 226.31 25.73C226.36 25.67 226.42 25.64 226.51 25.64L227.31 25.64C227.39 25.64 227.46 25.67 227.5 25.73C227.55 25.77 227.57 25.83 227.57 25.91C227.57 26.43 227.9 26.7 228.56 26.7Q229.14 26.7 229.37 26.41Q229.53 26.22 229.53 25.91C229.53 25.83 229.55 25.77 229.6 25.73C229.64 25.67 229.71 25.64 229.79 25.64L230.59 25.64C230.68 25.64 230.74 25.67 230.79 25.73C230.83 25.77 230.86 25.83 230.86 25.91C230.86 26.45 230.67 26.9 230.3 27.25C229.93 27.6 229.35 27.77 228.56 27.77ZM126.17 38.18Q124.34 38.18 123.29 37.27Q123.26 37.25 123.24 37.22C122.53 36.58 122.17 35.63 122.13 34.38Q122.11 33.97 122.11 33.2L122.11 33.2C122.11 32.67 122.12 32.27 122.13 32C122.17 30.77 122.54 29.83 123.26 29.17Q123.38 29.06 123.5 28.97Q124.54 28.18 126.17 28.18Q127.8 28.18 128.84 28.97Q128.96 29.06 129.08 29.17C129.81 29.83 130.19 30.77 130.23 32Q130.26 32.81 130.26 33.2C130.26 33.45 130.25 33.84 130.23 34.38C130.18 35.63 129.81 36.58 129.11 37.22C128.41 37.86 127.43 38.18 126.17 38.18ZM169.99 38.18C168.71 38.18 167.73 37.85 167.07 37.19Q166.94 37.06 166.82 36.92Q166.06 35.98 165.96 34.5C165.94 34.26 165.93 34.09 165.93 33.99L164.05 33.99L164.05 37.71C164.05 37.8 164.02 37.88 163.95 37.94C163.9 38.01 163.82 38.04 163.72 38.04L162.46 38.04C162.37 38.04 162.29 38.01 162.22 37.94C162.16 37.88 162.13 37.8 162.13 37.71L162.13 28.66C162.13 28.55 162.16 28.48 162.22 28.42C162.29 28.36 162.37 28.32 162.46 28.32L163.72 28.32C163.82 28.32 163.9 28.36 163.95 28.42C164.02 28.48 164.05 28.55 164.05 28.66L164.05 32.25L165.95 32.25L165.96 31.81C166.05 30.72 166.43 29.84 167.1 29.18C167.77 28.52 168.74 28.18 169.99 28.18C171.29 28.18 172.28 28.54 172.95 29.24C173.64 29.93 174 30.85 174.05 32C174.07 32.54 174.08 32.94 174.08 33.2C174.08 33.45 174.07 33.84 174.05 34.38Q173.99 35.9 173.23 36.87Q173.11 37.03 172.97 37.17C172.29 37.84 171.3 38.18 169.99 38.18ZM121.41 37.57C121.44 37.61 121.45 37.66 121.45 37.72C121.45 37.8 121.42 37.88 121.36 37.94C121.3 38.01 121.23 38.04 121.13 38.04L119.71 38.04C119.6 38.04 119.51 38.02 119.46 37.99C119.4 37.94 119.35 37.88 119.29 37.8L116.91 33.99L115.59 33.99L115.59 37.71C115.59 37.8 115.56 37.88 115.5 37.94C115.44 38.01 115.36 38.04 115.26 38.04L114 38.04C113.91 38.04 113.83 38.01 113.77 37.94C113.7 37.88 113.67 37.8 113.67 37.71L113.67 28.67C113.67 28.57 113.7 28.49 113.75 28.42Q113.78 28.39 113.82 28.37Q113.9 28.32 114 28.32L115.26 28.32C115.36 28.32 115.44 28.36 115.5 28.42C115.56 28.49 115.59 28.57 115.59 28.67L115.59 32.25L116.81 32.27L119.06 28.57Q119.1 28.5 119.15 28.45Q119.3 28.32 119.56 28.32L120.93 28.32C121.02 28.32 121.09 28.35 121.13 28.41C121.19 28.46 121.22 28.53 121.22 28.61C121.22 28.65 121.2 28.71 121.16 28.78L118.54 33.02L121.41 37.57ZM132.42 38.04C132.32 38.04 132.24 38.01 132.17 37.96C132.11 37.89 132.08 37.81 132.08 37.71L132.08 28.67C132.08 28.57 132.11 28.49 132.17 28.42C132.24 28.36 132.32 28.32 132.42 28.32L133.52 28.32C133.71 28.32 133.85 28.41 133.93 28.59L136.6 33.58L139.3 28.59C139.4 28.41 139.53 28.32 139.72 28.32L140.8 28.32C140.9 28.32 140.98 28.36 141.05 28.42C141.11 28.49 141.15 28.57 141.15 28.67L141.15 37.71C141.15 37.81 141.11 37.89 141.05 37.96C140.98 38.01 140.9 38.04 140.8 38.04L139.64 38.04C139.54 38.04 139.47 38.01 139.4 37.94C139.34 37.88 139.3 37.8 139.3 37.71L139.3 31.7L137.37 35.4C137.25 35.61 137.09 35.71 136.89 35.71L136.33 35.71C136.13 35.71 135.98 35.61 135.86 35.4L133.92 31.7L133.92 37.71C133.92 37.8 133.89 37.88 133.82 37.94C133.77 38.01 133.69 38.04 133.58 38.04L132.42 38.04ZM143.63 38.04C143.54 38.04 143.46 38.01 143.4 37.94C143.33 37.88 143.3 37.8 143.3 37.71L143.3 28.67C143.3 28.57 143.33 28.49 143.38 28.42C143.45 28.36 143.53 28.32 143.63 28.32L150.89 28.32C150.99 28.32 151.07 28.36 151.14 28.42C151.2 28.49 151.24 28.57 151.24 28.67L151.24 37.71C151.24 37.81 151.2 37.89 151.14 37.96C151.07 38.01 150.99 38.04 150.89 38.04L149.64 38.04C149.55 38.04 149.47 38.01 149.41 37.94C149.34 37.88 149.31 37.8 149.31 37.71L149.31 30.06L145.23 30.06L145.23 37.71C145.23 37.8 145.19 37.88 145.13 37.94C145.07 38.01 144.99 38.04 144.89 38.04L143.63 38.04ZM153.72 38.04C153.63 38.04 153.55 38.01 153.49 37.94C153.42 37.88 153.39 37.8 153.39 37.71L153.39 28.66C153.39 28.55 153.42 28.48 153.49 28.42C153.55 28.36 153.63 28.32 153.72 28.32L154.98 28.32C155.08 28.32 155.16 28.36 155.22 28.42C155.28 28.48 155.31 28.55 155.31 28.66L155.31 31.84L157.1 31.84C158.21 31.84 159.06 32.09 159.65 32.61C160.25 33.13 160.55 33.89 160.55 34.89C160.55 35.49 160.41 36.03 160.15 36.51C159.89 36.99 159.5 37.36 158.98 37.64C158.47 37.91 157.84 38.04 157.1 38.04L153.72 38.04ZM178.36 38.04C178.26 38.04 178.19 38.01 178.12 37.94C178.06 37.88 178.02 37.8 178.02 37.71L178.02 30.03L175.46 30.03C175.37 30.03 175.29 30 175.23 29.93C175.16 29.87 175.13 29.79 175.13 29.7L175.13 28.67C175.13 28.57 175.16 28.49 175.21 28.42C175.28 28.36 175.36 28.32 175.46 28.32L182.53 28.32C182.63 28.32 182.71 28.36 182.77 28.42C182.84 28.49 182.87 28.57 182.87 28.67L182.87 29.7C182.87 29.79 182.84 29.87 182.77 29.93C182.71 30 182.63 30.03 182.53 30.03L179.98 30.03L179.98 37.71C179.98 37.8 179.95 37.88 179.88 37.94C179.82 38.01 179.73 38.04 179.63 38.04L178.36 38.04ZM184.61 38.04C184.52 38.04 184.44 38.01 184.37 37.94C184.31 37.88 184.28 37.8 184.28 37.71L184.28 28.67C184.28 28.57 184.3 28.49 184.36 28.42C184.42 28.36 184.51 28.32 184.61 28.32L190.7 28.32C190.8 28.32 190.89 28.36 190.95 28.42C191.02 28.49 191.05 28.57 191.05 28.67L191.05 29.59C191.05 29.69 191.02 29.77 190.95 29.84C190.89 29.89 190.8 29.92 190.7 29.92L186.15 29.92L186.15 32.38L190.4 32.38C190.5 32.38 190.58 32.41 190.65 32.47C190.71 32.53 190.74 32.61 190.74 32.71L190.74 33.57C190.74 33.67 190.71 33.76 190.65 33.82C190.58 33.88 190.5 33.9 190.4 33.9L186.15 33.9L186.15 36.44L190.81 36.44C190.91 36.44 191 36.48 191.06 36.54C191.13 36.61 191.16 36.69 191.16 36.79L191.16 37.71C191.16 37.81 191.13 37.89 191.06 37.96C191 38.01 190.91 38.04 190.81 38.04L184.61 38.04ZM193.22 38.04C193.13 38.04 193.05 38.01 192.99 37.94C192.92 37.88 192.89 37.8 192.89 37.71L192.89 28.67C192.89 28.57 192.92 28.49 192.97 28.42Q193.01 28.39 193.04 28.37Q193.12 28.32 193.22 28.32L196.94 28.32C198.04 28.32 198.92 28.59 199.55 29.11C200.19 29.63 200.51 30.4 200.51 31.4C200.51 32.41 200.19 33.18 199.55 33.7C198.92 34.2 198.05 34.46 196.94 34.46L194.87 34.46L194.87 37.71C194.87 37.8 194.84 37.88 194.77 37.94C194.72 38.01 194.64 38.04 194.54 38.04L193.22 38.04ZM202.35 38.04C202.26 38.04 202.18 38.01 202.12 37.94C202.05 37.88 202.02 37.8 202.02 37.71L202.02 28.67C202.02 28.57 202.05 28.49 202.1 28.42C202.17 28.36 202.25 28.32 202.35 28.32L203.61 28.32C203.71 28.32 203.79 28.36 203.85 28.42C203.91 28.49 203.94 28.57 203.94 28.67L203.94 32.25L208.03 32.25L208.03 28.67C208.03 28.57 208.06 28.49 208.11 28.42Q208.14 28.39 208.18 28.37Q208.26 28.32 208.36 28.32L209.61 28.32C209.71 28.32 209.79 28.36 209.86 28.42C209.92 28.49 209.95 28.57 209.95 28.67L209.95 37.71C209.95 37.81 209.92 37.89 209.86 37.96C209.79 38.01 209.71 38.04 209.61 38.04L208.36 38.04C208.27 38.04 208.19 38.01 208.13 37.94C208.06 37.88 208.03 37.8 208.03 37.71L208.03 33.99L203.94 33.99L203.94 37.71C203.94 37.8 203.91 37.88 203.85 37.94C203.79 38.01 203.71 38.04 203.61 38.04L202.35 38.04ZM212.44 38.04C212.35 38.04 212.27 38.01 212.21 37.94C212.14 37.88 212.11 37.8 212.11 37.71L212.11 28.66C212.11 28.55 212.14 28.48 212.21 28.42Q212.25 28.37 212.31 28.35Q212.37 28.32 212.44 28.32L213.7 28.32C213.8 28.32 213.88 28.36 213.94 28.42C214 28.48 214.03 28.55 214.03 28.66L214.03 31.84L215.57 31.84C216.68 31.84 217.53 32.09 218.12 32.61C218.72 33.13 219.02 33.89 219.02 34.89C219.02 35.49 218.89 36.03 218.62 36.51C218.36 36.99 217.97 37.36 217.45 37.64C216.94 37.91 216.31 38.04 215.57 38.04L212.44 38.04ZM220.54 38.04C220.45 38.04 220.37 38.01 220.31 37.94C220.24 37.88 220.21 37.8 220.21 37.71L220.21 28.66C220.21 28.55 220.24 28.48 220.31 28.42C220.37 28.36 220.45 28.32 220.54 28.32L221.84 28.32C221.95 28.32 222.02 28.36 222.08 28.42C222.14 28.48 222.18 28.55 222.18 28.66L222.18 37.71C222.18 37.8 222.14 37.88 222.08 37.94C222.02 38.01 221.95 38.04 221.84 38.04L220.54 38.04ZM224.68 38.04C224.58 38.04 224.5 38.01 224.43 37.94C224.38 37.88 224.35 37.8 224.35 37.69L224.35 28.67C224.35 28.57 224.38 28.49 224.44 28.42C224.51 28.36 224.59 28.32 224.69 28.32L225.94 28.32C226.04 28.32 226.12 28.36 226.18 28.42C226.24 28.49 226.27 28.57 226.27 28.67L226.27 35.04L230.83 28.55C230.93 28.4 231.06 28.32 231.23 28.32L232.38 28.32C232.48 28.32 232.56 28.36 232.61 28.42C232.68 28.49 232.71 28.57 232.71 28.67L232.71 37.71C232.71 37.8 232.68 37.88 232.61 37.94C232.56 38.01 232.48 38.04 232.38 38.04L231.13 38.04C231.03 38.04 230.95 38.01 230.88 37.96C230.82 37.89 230.79 37.81 230.79 37.71L230.79 31.46L226.24 37.82C226.19 37.89 226.13 37.95 226.08 37.99C226.02 38.02 225.94 38.04 225.84 38.04L224.68 38.04ZM126.17 36.58Q126.89 36.58 127.38 36.25Q127.53 36.15 127.65 36.03C128.02 35.65 128.22 35.07 128.25 34.31C128.27 33.75 128.28 33.38 128.28 33.18C128.28 32.97 128.27 32.59 128.25 32.06C128.22 31.29 128.02 30.72 127.65 30.35Q127.51 30.21 127.35 30.1Q126.87 29.78 126.17 29.78C125.56 29.78 125.07 29.97 124.7 30.35C124.33 30.72 124.14 31.29 124.11 32.06Q124.09 32.46 124.09 33.18C124.09 33.65 124.1 34.03 124.11 34.31C124.14 35.07 124.33 35.65 124.69 36.03Q124.82 36.15 124.96 36.25Q125.45 36.58 126.17 36.58ZM169.99 36.58C170.62 36.58 171.11 36.4 171.47 36.04C171.84 35.68 172.04 35.12 172.07 34.35C172.09 33.79 172.1 33.4 172.1 33.18C172.1 32.94 172.09 32.55 172.07 32.02C172.04 31.25 171.84 30.68 171.47 30.32C171.1 29.96 170.61 29.78 169.99 29.78C169.37 29.78 168.88 29.96 168.51 30.32C168.15 30.68 167.96 31.25 167.93 32.02C167.92 32.28 167.91 32.67 167.91 33.18C167.91 33.68 167.92 34.07 167.93 34.35C167.96 35.12 168.15 35.68 168.51 36.04C168.88 36.4 169.37 36.58 169.99 36.58ZM196.87 32.92C197.4 32.92 197.81 32.79 198.1 32.54C198.38 32.28 198.53 31.9 198.53 31.4C198.53 30.92 198.39 30.55 198.11 30.28C197.84 30 197.42 29.86 196.87 29.86L194.84 29.86L194.84 32.92L196.87 32.92ZM157.02 36.5C157.51 36.5 157.88 36.35 158.15 36.06C158.43 35.76 158.57 35.37 158.57 34.88C158.57 33.88 158.05 33.38 157.02 33.38L155.31 33.38L155.31 36.5L157.02 36.5ZM215.5 36.5C215.98 36.5 216.36 36.35 216.62 36.06C216.9 35.76 217.04 35.37 217.04 34.88C217.04 33.88 216.53 33.38 215.5 33.38L214.03 33.38L214.03 36.5L215.5 36.5ZM117.41 54.84C116.13 54.84 115.15 54.51 114.45 53.85C113.75 53.2 113.38 52.27 113.34 51.08C113.33 50.83 113.32 50.42 113.32 49.86C113.32 49.28 113.33 48.86 113.34 48.61C113.38 47.42 113.76 46.5 114.46 45.84Q114.54 45.77 114.63 45.7L114.63 45.7Q115.67 44.84 117.41 44.84C118.23 44.84 118.95 44.99 119.56 45.27C120.16 45.55 120.64 45.94 120.97 46.43C121.3 46.91 121.48 47.45 121.49 48.06L121.49 48.09C121.49 48.17 121.46 48.23 121.4 48.29C121.34 48.33 121.28 48.36 121.2 48.36L119.89 48.36C119.78 48.36 119.69 48.33 119.64 48.29C119.58 48.24 119.54 48.15 119.5 48.02C119.35 47.44 119.11 47.03 118.77 46.8C118.42 46.56 117.97 46.44 117.4 46.44C116.07 46.44 115.37 47.18 115.32 48.67C115.31 48.92 115.3 49.31 115.3 49.83C115.3 50.35 115.31 50.74 115.32 51.01Q115.36 52.26 116.01 52.81Q116.52 53.24 117.4 53.24C117.97 53.24 118.42 53.12 118.77 52.88C119.12 52.64 119.36 52.23 119.5 51.66C119.53 51.53 119.57 51.44 119.62 51.4C119.69 51.35 119.78 51.33 119.89 51.33L121.2 51.33C121.29 51.33 121.36 51.35 121.41 51.41C121.47 51.46 121.5 51.52 121.5 51.59C121.5 51.6 121.5 51.61 121.49 51.62C121.48 52.23 121.3 52.78 120.97 53.27C120.64 53.75 120.16 54.14 119.56 54.42Q118.64 54.84 117.41 54.84ZM164.63 54.84C163.36 54.84 162.37 54.51 161.67 53.85C160.98 53.2 160.61 52.27 160.56 51.08C160.55 50.83 160.55 50.42 160.55 49.86C160.55 49.28 160.55 48.86 160.56 48.61C160.61 47.42 160.98 46.5 161.68 45.84C162.39 45.18 163.38 44.84 164.63 44.84C165.46 44.84 166.17 44.99 166.78 45.27C167.39 45.55 167.86 45.94 168.19 46.43C168.52 46.91 168.7 47.45 168.72 48.06L168.72 48.09C168.72 48.17 168.69 48.23 168.62 48.29Q168.58 48.32 168.54 48.33Q168.49 48.36 168.43 48.36L167.11 48.36C167 48.36 166.92 48.33 166.86 48.29C166.81 48.24 166.76 48.15 166.72 48.02C166.58 47.44 166.33 47.03 165.99 46.8C165.65 46.56 165.19 46.44 164.62 46.44C163.29 46.44 162.6 47.18 162.54 48.67C162.53 48.92 162.53 49.31 162.53 49.83C162.53 50.35 162.53 50.74 162.54 51.01C162.6 52.5 163.29 53.24 164.62 53.24C165.19 53.24 165.65 53.12 165.99 52.88C166.34 52.64 166.59 52.23 166.72 51.66C166.75 51.53 166.79 51.44 166.85 51.4C166.91 51.35 167 51.33 167.11 51.33L168.43 51.33C168.51 51.33 168.58 51.35 168.64 51.41C168.69 51.46 168.72 51.52 168.72 51.59C168.72 51.6 168.72 51.61 168.72 51.62C168.7 52.23 168.52 52.78 168.19 53.27C167.86 53.75 167.39 54.14 166.78 54.42C166.17 54.7 165.46 54.84 164.63 54.84ZM123.47 54.7C123.38 54.7 123.3 54.67 123.23 54.6C123.17 54.54 123.14 54.46 123.14 54.37L123.14 45.33C123.14 45.23 123.16 45.14 123.22 45.08C123.28 45.01 123.37 44.98 123.47 44.98L129.56 44.98C129.66 44.98 129.75 45.01 129.81 45.08C129.88 45.14 129.91 45.23 129.91 45.33L129.91 46.25Q129.91 46.35 129.86 46.43Q129.84 46.46 129.81 46.5C129.75 46.55 129.66 46.58 129.56 46.58L125.01 46.58L125.01 49.04L129.26 49.04C129.36 49.04 129.44 49.07 129.51 49.13C129.57 49.19 129.6 49.27 129.6 49.37L129.6 50.23Q129.6 50.33 129.56 50.41Q129.54 50.45 129.51 50.48C129.44 50.54 129.36 50.56 129.26 50.56L125.01 50.56L125.01 53.1L129.67 53.1C129.77 53.1 129.86 53.14 129.92 53.2C129.99 53.27 130.02 53.35 130.02 53.45L130.02 54.37C130.02 54.47 129.99 54.55 129.92 54.62C129.86 54.67 129.77 54.7 129.67 54.7L123.47 54.7ZM132.08 54.7C131.99 54.7 131.91 54.67 131.85 54.6Q131.8 54.56 131.78 54.5Q131.75 54.44 131.75 54.37L131.75 45.33C131.75 45.23 131.78 45.14 131.83 45.08C131.9 45.01 131.98 44.98 132.08 44.98L135.79 44.98C136.9 44.98 137.77 45.25 138.41 45.77Q138.64 45.96 138.81 46.18Q139.37 46.91 139.37 48.06C139.37 49.07 139.05 49.84 138.41 50.35C137.78 50.86 136.91 51.12 135.79 51.12L133.73 51.12L133.73 54.37C133.73 54.46 133.7 54.54 133.63 54.6C133.58 54.67 133.5 54.7 133.4 54.7L132.08 54.7ZM141.21 54.7C141.12 54.7 141.04 54.67 140.98 54.6Q140.93 54.56 140.91 54.5Q140.88 54.44 140.88 54.37L140.88 45.33C140.88 45.23 140.91 45.14 140.96 45.08C141.03 45.01 141.11 44.98 141.21 44.98L145.23 44.98C146.31 44.98 147.11 45.22 147.64 45.7C148.17 46.18 148.44 46.82 148.44 47.65C148.44 48.13 148.32 48.54 148.08 48.88C147.85 49.22 147.58 49.46 147.26 49.61C147.65 49.78 147.97 50.07 148.23 50.47C148.5 50.86 148.63 51.32 148.63 51.83C148.63 52.69 148.34 53.38 147.76 53.91C147.19 54.44 146.38 54.7 145.34 54.7L141.21 54.7ZM150.71 54.7C150.6 54.7 150.52 54.67 150.46 54.6C150.4 54.54 150.37 54.45 150.37 54.35L150.37 45.33C150.37 45.23 150.41 45.14 150.47 45.08C150.53 45.01 150.62 44.98 150.72 44.98L151.97 44.98C152.07 44.98 152.14 45.01 152.2 45.08C152.27 45.14 152.3 45.23 152.3 45.33L152.3 51.7L156.85 45.2C156.96 45.06 157.09 44.98 157.25 44.98L158.41 44.98C158.51 44.98 158.59 45.01 158.64 45.08C158.71 45.14 158.74 45.23 158.74 45.33L158.74 54.37C158.74 54.46 158.71 54.54 158.64 54.6C158.59 54.67 158.51 54.7 158.41 54.7L157.16 54.7C157.06 54.7 156.97 54.67 156.91 54.62C156.84 54.55 156.81 54.47 156.81 54.37L156.81 48.12L152.27 54.48C152.21 54.55 152.16 54.61 152.1 54.64C152.05 54.68 151.97 54.7 151.87 54.7L150.71 54.7ZM144.98 48.97C145.46 48.97 145.82 48.85 146.07 48.62C146.32 48.39 146.45 48.08 146.45 47.69C146.45 47.29 146.32 46.99 146.07 46.77C145.82 46.55 145.46 46.44 144.98 46.44L142.8 46.44L142.8 48.97L144.98 48.97ZM135.73 49.58C136.26 49.58 136.67 49.45 136.96 49.2C137.24 48.94 137.39 48.56 137.39 48.06C137.39 47.58 137.25 47.21 136.97 46.94C136.69 46.66 136.28 46.52 135.73 46.52L133.7 46.52L133.7 49.58L135.73 49.58ZM145.12 53.23C145.6 53.23 145.97 53.1 146.24 52.84C146.51 52.57 146.64 52.23 146.64 51.83C146.64 51.41 146.51 51.07 146.24 50.81C145.97 50.54 145.6 50.41 145.12 50.41L142.8 50.41L142.8 53.23L145.12 53.23Z" fill="#FFFFFF" fill-opacity="1.000000" fill-rule="evenodd"/>
	<path d="M102.76 102.18L96.93 102.18L96.93 68.31L102.76 67.66L102.76 102.18ZM66.82 73.61L63.59 76.99C61.45 75.3 59.68 74.47 56.99 74.47C52.53 74.47 48.72 77.86 48.72 86.36C48.72 94.99 51.26 98.24 56.18 98.24C57.95 98.24 59.68 97.87 61.18 97.01L61.18 88.78L56.45 88.78L55.81 84.29L67.09 84.29L67.09 99.75C63.95 101.66 60.22 102.86 56.26 102.86C47.31 102.86 42.39 97.19 42.39 86.36C42.39 75.66 48.94 69.9 56.8 69.9C61.18 69.91 64.18 71.37 66.82 73.61ZM167.9 73.25L164.85 76.82C163.03 75.36 161.17 74.58 159.03 74.58C154.67 74.58 151.3 77.78 151.3 86.33C151.3 94.65 154.57 98.03 159.03 98.03C161.76 98.03 163.63 96.85 165.44 95.47L168.26 99.04C166.35 101.01 163.07 102.89 158.8 102.89C150.66 102.89 144.97 97.08 144.97 86.33C144.97 75.73 150.97 69.93 158.7 69.93C162.72 69.91 165.31 71.1 167.9 73.25ZM92.54 91.89L77.46 91.89C77.91 96.83 80.18 98.43 83.37 98.43C85.5 98.43 87.27 97.75 89.36 96.28L91.77 99.61C89.41 101.53 86.5 102.86 82.86 102.86C75.4 102.86 71.4 97.88 71.4 90.25C71.4 82.89 75.27 77.31 82.09 77.31C88.82 77.31 92.68 81.88 92.68 89.52C92.68 90.3 92.58 91.26 92.54 91.89ZM141.08 90.06C141.08 97.7 136.85 102.86 129.76 102.86C122.67 102.86 118.45 98.02 118.45 90.06C118.45 82.48 122.67 77.31 129.81 77.31C136.9 77.31 141.08 82.16 141.08 90.06ZM192.55 90.06C192.55 97.7 188.32 102.86 181.23 102.86C174.14 102.86 169.92 98.02 169.92 90.06C169.92 82.48 174.14 77.31 181.28 77.31C188.36 77.31 192.55 82.16 192.55 90.06ZM235.36 90.03C235.36 97.44 231.95 102.88 225.86 102.88C223.4 102.88 221.31 102.01 219.81 100.22L219.81 111.51L213.99 112.15L213.99 78.01L219.08 78.01L219.4 80.98C221.3 78.46 223.86 77.33 226.45 77.33C232.71 77.31 235.36 82.29 235.36 90.03ZM210.44 77.68L209.44 83.35C208.72 83.17 208.16 83.08 207.3 83.08C204.39 83.08 202.89 85.23 201.98 89.3L201.98 102.18L196.16 102.18L196.16 78.01L201.21 78.01L201.75 82.76C202.89 79.29 205.2 77.36 208.03 77.36C208.89 77.36 209.66 77.45 210.44 77.68ZM109.17 88.65L117.94 102.18L111.26 102.18L102.99 88.98L111.04 78.01L117.18 78.01L109.17 88.65ZM86.91 87.83C86.91 83.85 85.49 81.48 82.22 81.48C79.5 81.48 77.76 83.31 77.46 88.11L86.92 88.11L86.92 87.83L86.91 87.83ZM229.26 90.06C229.26 83.94 227.63 81.7 224.72 81.7C222.66 81.7 220.94 83.12 219.8 84.99L219.8 95.87C220.93 97.56 222.39 98.39 224.21 98.39C227.39 98.39 229.26 95.92 229.26 90.06ZM124.58 90.06C124.58 95.87 126.35 98.43 129.76 98.43C133.18 98.43 134.95 95.82 134.95 90.06C134.95 84.31 133.18 81.75 129.81 81.75C126.4 81.75 124.58 84.36 124.58 90.06ZM176.03 90.06C176.03 95.87 177.8 98.43 181.22 98.43C184.64 98.43 186.4 95.82 186.4 90.06C186.4 84.31 184.64 81.75 181.27 81.75C177.85 81.75 176.03 84.36 176.03 90.06Z" fill="#E7742E" fill-opacity="1.000000" fill-rule="evenodd"/>
	<path d="M98.55 31.66C98.5 29.32 98.21 27 97.73 24.69C97.09 21.6 96.03 18.69 94.14 16.15C91.78 12.98 88.94 10.35 85.68 8.18C82.99 6.37 80.17 4.81 77.21 3.5C74.6 2.35 71.91 1.43 69.12 0.85C67.31 0.48 65.48 0.26 63.65 0.17C62.25 0.11 60.84 -0.08 59.45 0.02C58.15 0.11 56.86 0.15 55.55 0.26C53.27 0.46 51.07 0.98 48.92 1.77C46.23 2.76 43.6 3.9 41.07 5.27C37.96 6.95 35.13 9.03 32.58 11.49C30.18 13.81 28.07 16.38 26.08 19.05C25.63 19.66 25.2 20.28 24.79 20.9C24.56 21.23 24.28 21.4 23.89 21.38C23.63 21.37 23.37 21.39 23.13 21.35C21.53 21.12 19.92 21.24 18.31 21.21C16.8 21.17 15.3 21.32 13.83 21.69C11.12 22.37 8.59 23.43 6.4 25.25C5.86 25.71 5.68 26.23 5.83 26.9C5.99 27.6 6.28 28.21 6.78 28.74C7.63 29.62 8.6 30.34 9.61 30.99C9.83 31.14 10.11 31.22 10.2 31.51C10 31.72 9.79 31.66 9.6 31.69C8.1 31.87 6.61 32.08 5.17 32.59C4.34 32.89 3.61 33.37 2.99 33.99C2.86 34.11 2.7 34.26 2.8 34.46C2.91 34.67 3.12 34.57 3.28 34.52C4.22 34.25 5.17 34.1 6.13 33.94C6.74 33.84 7.32 33.85 8.01 33.9C7.82 34.15 7.64 34.16 7.47 34.2C6.6 34.41 5.76 34.72 4.93 35.05C2.82 35.9 1.08 37.19 0.19 39.43C0.12 39.58 0.06 39.72 0.01 39.86C-0.02 39.96 -0.01 40.09 0.1 40.12C0.16 40.15 0.26 40.12 0.31 40.09C0.63 39.83 0.95 39.57 1.25 39.29C3.01 37.75 5.03 36.72 7.3 36.26C7.87 36.15 8.44 35.95 9.06 36.07C8.37 36.49 7.73 36.94 7.07 37.38C5.73 38.26 4.84 39.5 4.13 40.9C4.04 41.08 3.85 41.3 4.02 41.47C4.23 41.67 4.36 41.39 4.54 41.3C4.6 41.26 4.66 41.21 4.72 41.16C7.26 39.15 9.98 37.49 13.05 36.46C13.71 36.24 14.39 36 15.09 35.83C15.12 36.18 14.91 36.33 14.78 36.5C14.06 37.54 14.02 38.68 14.3 39.86C14.34 40.04 14.37 40.26 14.6 40.26C14.82 40.27 14.88 40.05 14.94 39.89C15.74 38 17.17 36.76 18.92 35.85C20.12 35.24 21.37 34.8 22.61 34.33C23.32 34.07 23.52 33.74 23.51 32.98C23.51 32.8 23.47 32.63 23.46 32.44C23.45 32.18 23.61 32.07 23.83 32.03C24.07 31.99 24.21 32.12 24.26 32.37C24.28 32.49 24.28 32.63 24.31 32.75C24.45 33.99 24.63 35.22 25.03 36.41C25.44 37.6 25.94 38.73 26.57 39.81C26.91 40.4 26.83 40.53 26.16 40.56C25.31 40.58 24.49 40.75 23.67 40.92C23.02 41.05 22.37 41.22 21.8 41.6C21.07 42.07 20.41 42.64 20.33 43.58C20.24 44.43 20.24 45.3 20.4 46.15C20.79 48.29 21.58 50.29 22.38 52.3C22.82 53.41 23.32 54.49 23.79 55.59C23.97 56.03 23.89 56.16 23.43 56.18C22.89 56.22 22.37 56.06 21.86 55.9C20.74 55.54 19.62 55.16 18.51 54.82C16.98 54.36 15.46 53.93 13.85 53.99C12.81 54.03 11.92 54.43 11.16 55.13C11 55.28 10.73 55.43 10.8 55.69C10.89 55.97 11.2 55.86 11.4 55.87C12.07 55.89 12.73 55.86 13.4 55.87C14.39 55.9 15.31 56.18 16.12 56.78C16.26 56.88 16.45 56.94 16.41 57.19C16.16 57.33 15.88 57.36 15.59 57.38C14.65 57.46 13.71 57.54 12.77 57.58C11.8 57.62 10.83 57.61 9.86 57.61C9.39 57.61 8.95 57.68 8.53 57.94C7.53 58.56 7.03 59.55 6.6 60.59C6.56 60.69 6.55 60.8 6.65 60.87C6.74 60.95 6.85 60.93 6.93 60.88C7.07 60.82 7.2 60.75 7.34 60.67C8.25 60.13 9.23 59.78 10.26 59.57C11.91 59.23 13.57 59.3 15.21 59.38C15.25 59.38 15.28 59.45 15.34 59.51C14.98 59.88 14.54 60.14 14.13 60.44C12.73 61.44 11.38 62.52 10.19 63.78C9.12 64.91 9.65 65.99 10.45 66.87C10.63 67.07 10.81 67.05 10.93 66.77C11.04 66.51 11.1 66.23 11.21 65.97C11.7 64.73 12.47 63.78 13.73 63.3C16.21 62.35 18.8 61.95 21.43 61.68C21.86 61.63 22.29 61.57 22.72 61.54C23.23 61.52 23.32 61.63 23.24 62.12C23.21 62.25 23.19 62.38 23.15 62.51C22.89 63.36 23.13 64.11 23.63 64.78C23.94 65.19 24.33 65.54 24.69 65.91C24.77 65.99 24.88 66.09 25.02 66.03C25.2 65.95 25.15 65.77 25.13 65.62C24.76 63.5 25.61 61.89 27.21 60.58C27.72 60.15 28.34 59.85 28.77 59.31C29.74 58.1 30.28 56.73 30.25 55.14C30.23 53.36 29.89 51.63 29.53 49.9C29.38 49.18 29.46 49.09 30.16 49.29C30.23 49.32 30.3 49.34 30.38 49.37C33.34 50.27 36.32 51.05 39.38 51.59C42.07 52.08 44.79 52.37 47.52 52.43C48.32 52.45 49.1 52.32 49.89 52.31C51.43 52.3 52.95 52.11 54.46 51.94C57.79 51.56 61.07 50.95 64.33 50.12C66.01 49.7 67.69 49.27 69.35 48.72C69.99 48.51 70.1 48.59 70.12 49.24C70.13 50.1 70.13 50.96 70.1 51.82C70.09 52.42 69.98 52.53 69.43 52.68C69.28 52.72 69.13 52.74 68.97 52.78C66.02 53.4 63.07 54.03 60.17 54.88C55.92 56.12 51.71 57.47 47.64 59.24C44.52 60.59 41.37 61.9 38.5 63.78C36.36 65.18 34.28 66.64 32.4 68.36C30.13 70.44 28.28 72.87 26.84 75.65C25.74 77.76 24.99 80 24.59 82.34C24.06 85.42 24.18 88.51 24.68 91.59C25.14 94.58 26.06 97.4 27.49 100.06C28.29 101.55 29.22 102.94 30.29 104.23C30.83 104.88 31.47 105.46 32.07 106.06C33.74 107.73 35.61 109.14 37.74 110.14C40.81 111.58 43.94 112.81 47.31 113.32C60.24 115.29 68.92 112.76 72.92 108.19C73.24 107.83 72.79 107.28 72.24 107.46C70.45 108.05 69.41 109.23 64.11 110.57C58.8 111.92 51.79 111.19 50.38 110.96C47.52 110.49 44.77 109.61 42.14 108.38C40.06 107.42 38.11 106.26 36.31 104.81C35.19 103.89 34.21 102.83 33.31 101.69C31.68 99.64 30.3 97.42 29.44 94.91C28.29 91.52 28.12 88.04 28.66 84.52C29.11 81.61 30.22 78.99 31.83 76.55C33.24 74.42 34.96 72.58 36.88 70.92C38.95 69.14 41.2 67.6 43.61 66.33C46.76 64.66 50.11 63.53 53.48 62.51C58.81 60.87 64.27 59.73 69.77 58.83C70.78 58.67 70.78 58.67 71.06 59.72C71.26 60.45 71.2 60.58 70.47 60.77C69.38 61.06 68.28 61.32 67.2 61.61C65.88 61.99 64.54 62.34 63.23 62.78C61.81 63.25 61.77 64.08 61.89 65.13C61.91 65.29 61.94 65.46 62.1 65.52C62.29 65.6 62.36 65.41 62.45 65.29C62.9 64.71 63.49 64.4 64.2 64.29C66.58 63.92 68.94 63.48 71.27 62.89C72 62.7 72.01 62.72 72.34 63.47C72.65 64.16 73.11 64.67 73.81 64.98C74.56 65.31 75.33 65.6 76.11 65.85C77.43 66.25 78.75 66.66 80.06 67.1C81.85 67.7 83.44 68.68 84.76 70.08C84.96 70.28 85.13 70.72 85.46 70.52C85.75 70.35 85.55 69.94 85.48 69.66C85.16 68.47 84.42 67.59 83.5 66.85C82.56 66.11 81.53 65.55 80.49 64.99C80.3 64.89 80.06 64.86 79.98 64.58C80.31 64.47 80.57 64.62 80.85 64.63C84.04 64.81 87.12 65.49 90.16 66.47C90.35 66.53 90.55 66.6 90.75 66.61C90.94 66.64 91.04 66.5 90.94 66.32C90.86 66.17 90.72 66.03 90.59 65.92C90.07 65.5 89.53 65.1 88.95 64.77C87.28 63.79 85.43 63.43 83.56 63.08C82.85 62.94 82.13 62.84 81.3 62.7C81.49 62.57 81.54 62.51 81.6 62.49C83.74 61.85 85.92 61.7 88.12 61.91C88.78 61.97 89.44 62.01 90.11 62.06C90.24 62.07 90.38 62.05 90.41 61.9C90.44 61.79 90.39 61.69 90.3 61.63C90.18 61.53 90.05 61.45 89.92 61.38C89.43 61.11 88.89 60.93 88.34 60.81C86.11 60.32 83.88 60.37 81.63 60.5C80.35 60.58 79.09 60.67 77.81 60.72C77.11 60.75 76.66 60.32 76.58 59.6C76.54 59.26 76.57 58.92 76.68 58.6C76.81 58.18 76.98 57.77 77.12 57.35C77.28 56.86 77.61 56.59 78.09 56.43C81.17 55.35 84.09 53.92 86.86 52.19C89.86 50.32 92.47 48.02 94.38 44.96C96.34 41.86 97.57 38.45 98.34 34.87C98.57 33.85 98.57 32.74 98.55 31.66ZM35.33 19.67C35.82 17.18 37.07 15.02 38.55 12.99C40.22 10.69 42.32 8.87 44.79 7.56C47.14 6.32 49.58 5.22 52.21 4.68C53.83 4.34 55.47 4.03 57.14 4.03C57.83 4.03 58.52 3.91 59.2 3.91C61.94 3.9 64.65 4.24 67.31 4.89C70.47 5.65 73.56 6.69 76.52 8.05C76.63 8.1 76.78 8.12 76.81 8.29C76.58 8.35 76.36 8.25 76.15 8.19C73.64 7.45 71.07 7 68.48 6.74C67.04 6.61 65.59 6.41 64.13 6.66C63.71 6.73 63.27 6.68 62.83 6.69C59.62 6.78 56.48 7.21 53.39 8.13C51.3 8.75 49.47 9.85 47.8 11.26C46.89 12.03 45.99 12.77 45.23 13.71C43.77 15.53 43.02 17.62 42.87 19.94C42.7 22.88 43.36 25.62 44.85 28.16C45.76 29.71 47.11 30.76 48.55 31.71C50.3 32.86 52.16 33.75 54.1 34.52C54.29 34.59 54.49 34.67 54.67 34.75C55.26 35.01 55.27 35.1 54.77 35.51C51.08 38.52 47.03 38.82 42.71 37.18C41.76 36.81 40.87 36.3 40.01 35.72C37.98 34.37 36.68 32.49 35.83 30.2C34.55 26.74 34.63 23.21 35.33 19.67ZM78.51 61.69C78.23 62 77.86 61.99 77.52 62.09C77.16 62.2 77.11 62.36 77.38 62.63C77.68 62.94 78.07 63.16 78.43 63.4C78.52 63.45 78.62 63.5 78.64 63.62C78.56 63.83 78.38 63.72 78.26 63.69C77.61 63.56 76.98 63.33 76.37 63.08C76.22 63.01 76.06 62.98 75.96 63.15C75.89 63.29 76 63.4 76.05 63.51C76.22 63.89 76.65 64.04 76.85 64.39C76.8 64.45 76.79 64.49 76.78 64.49C75.46 64.39 74.22 64.06 73.47 62.88C73 62.13 72.55 61.64 71.53 62.09C71.68 61.64 71.97 61.58 72.18 61.45C72.83 61.08 73.1 60.63 72.93 59.8C72.5 57.77 72.19 55.7 72.06 53.62C71.95 51.96 71.8 50.31 71.84 48.64C71.85 48.17 72.01 47.84 72.45 47.67C73.47 47.26 74.49 46.83 75.51 46.43C75.98 46.25 76.12 46.35 76.11 46.88C76.1 48.62 76.19 50.36 76.03 52.1C75.92 53.4 75.85 54.7 75.67 55.99C75.55 56.84 75.4 57.68 75.17 58.51C75.13 58.66 75.09 58.81 75.05 58.97C74.75 60.45 75.02 60.91 76.47 61.37C77.13 61.55 77.82 61.57 78.51 61.69ZM73.09 44.06C70.74 44.74 68.38 45.23 65.93 45.16C65.1 45.13 64.29 45.02 63.5 44.84C61.87 44.44 60.44 43.29 60.32 41.22C60.32 41.15 60.27 41.09 60.22 40.94C59.07 41.94 58.99 43.71 60 44.9C60.89 45.95 62.04 46.52 63.32 46.89C64.13 47.13 64.95 47.29 65.78 47.49C65.94 47.52 66.15 47.49 66.24 47.7C66.21 47.94 66 47.93 65.84 47.98C62.77 48.9 59.67 49.65 56.5 50.12C54.76 50.38 53.01 50.6 51.25 50.69C50.05 50.75 48.86 50.81 47.67 50.8C44.59 50.79 41.56 50.41 38.57 49.68C34.24 48.61 30.04 47.15 25.98 45.3C25.74 45.18 25.47 44.91 25.22 45.2C24.99 45.46 25.22 45.74 25.33 45.99C25.71 46.83 26.38 47.4 27.1 47.89C27.8 48.38 28.05 48.96 27.99 49.8C27.88 51.23 28.14 52.66 28.36 54.07C28.56 55.38 28.47 56.67 27.89 57.88C27.34 59.05 26.47 59.66 25.13 59.75C22.07 59.93 19.02 60.23 16.05 61.03C15.91 61.07 15.75 61.14 15.59 60.96C16.15 60.2 16.77 59.57 17.66 59.2C17.88 59.12 18.24 59.09 18.19 58.76C18.14 58.42 17.81 58.48 17.56 58.46C17.44 58.45 17.3 58.47 17.17 58.35C17.27 57.99 17.61 57.98 17.87 57.88C18.68 57.56 18.73 57.33 18.17 56.68C17.94 56.39 17.61 56.25 17.31 56.03C17.44 55.75 17.63 55.86 17.79 55.89C18.43 56 19.01 56.27 19.55 56.63C20.04 56.96 20.52 57.31 21.05 57.58C21.98 58.06 22.98 58.25 24.02 58.16C24.43 58.13 24.84 58.04 25.2 57.84C26.09 57.36 26.43 56.67 26.28 55.64C26.06 54.13 25.5 52.74 24.91 51.35C24.32 49.92 23.59 48.59 22.88 47.23C22.62 46.74 22.43 46.24 22.29 45.7C22 44.55 22.45 43.63 23.54 43.22C24.48 42.86 25.46 42.62 26.46 42.57C28.21 42.47 29.98 42.46 31.73 42.78C34.06 43.23 36.4 43.7 38.65 44.5C38.83 44.57 39.02 44.71 39.22 44.55C39.24 44.29 39.03 44.21 38.87 44.08C37.39 42.85 35.7 42.12 33.88 41.62C32.65 41.29 31.4 41.01 30.13 40.82C29.48 40.72 29.04 40.4 28.67 39.83C27.73 38.34 27.16 36.71 26.67 35.03C26.28 33.7 25.99 32.35 25.71 31C25.52 30.13 25.44 30.05 24.52 30.05C23.75 30.05 22.98 30.05 22.22 30.05C20.04 30.08 17.97 29.56 15.94 28.8C15.23 28.53 14.53 28.22 13.78 27.92C13.63 28.34 13.91 28.53 14.1 28.75C15.16 30.02 16.52 30.81 18.08 31.28C19.08 31.57 20.09 31.85 21.12 32.04C21.3 32.08 21.48 32.11 21.64 32.18C22.16 32.42 22.25 33 21.85 33.39C21.73 33.52 21.57 33.62 21.41 33.7C20.3 34.26 19.15 34.67 17.95 34.96C17.46 35.09 17.45 35.06 17.57 34.54C17.65 34.21 17.57 34.11 17.24 34.18C17.04 34.22 16.85 34.3 16.65 34.37C14.88 34.96 13.11 35.57 11.38 36.28C11.24 36.34 11.11 36.41 10.94 36.39C10.85 36.14 11.06 36.07 11.17 35.95C11.32 35.82 11.5 35.71 11.65 35.57C11.79 35.46 11.99 35.37 11.93 35.15C11.87 34.94 11.66 34.91 11.49 34.91C10.68 34.89 9.86 34.83 9.05 35.01C8.8 35.06 8.57 35.11 8.3 35.1C8.59 34.74 9.02 34.64 9.4 34.47C10.02 34.18 10.03 34.16 9.82 33.42C11.16 33.31 12.45 32.87 13.83 33.17C14.82 33.39 15.84 33.54 16.86 33.37C17.01 33.34 17.17 33.33 17.3 33.27C17.46 33.18 17.51 33.01 17.33 32.91C17.16 32.81 16.95 32.76 16.75 32.71C14.55 32.03 12.39 31.24 10.41 30.02C9.71 29.58 9.11 29.01 8.48 28.48C8.44 28.44 8.41 28.41 8.37 28.37C7.44 27.16 7.32 26.34 8.9 25.54C9.98 24.98 11.13 24.65 12.3 24.37C14.89 23.77 17.51 23.37 20.19 23.52C21.8 23.61 23.39 23.82 24.97 24.14C25.94 24.34 25.93 24.32 26.36 23.45C27.02 22.1 27.64 20.72 28.66 19.58C28.95 19.25 29.28 18.98 29.61 18.69C29.75 18.58 29.9 18.41 30.08 18.51C30.29 18.62 30.16 18.83 30.13 19C29.98 19.93 29.91 20.86 29.79 21.79C29.49 24.22 29.71 26.62 30.25 28.99C30.5 30.05 30.76 31.12 31.08 32.16C31.54 33.71 32.37 35.1 33.25 36.44C34.79 38.8 36.83 40.63 39.2 42.08C39.95 42.54 40.75 42.87 41.58 43.11C43.54 43.66 45.53 44 47.54 44.11C50.26 44.26 52.8 43.54 55.17 42.2C56.82 41.27 58.32 40.15 59.55 38.69C60.33 37.75 61.23 36.96 62.24 36.28C64.97 34.42 67.97 33.47 71.26 33.5C73.59 33.53 75.89 33.75 78.11 34.53C78.99 34.84 79.82 35.25 80.55 35.82C81.47 36.54 81.65 37.23 81.27 38.35C80.92 39.42 80.15 40.14 79.34 40.82C77.5 42.3 75.4 43.38 73.09 44.06ZM84.93 43.86C83.01 45.64 80.97 47.29 78.8 48.76C78.69 48.83 78.59 48.92 78.5 48.98C78.38 49.06 78.27 49.13 78.14 49.07C77.95 48.98 77.99 48.81 78.03 48.66C78.2 47.87 78.05 47.11 77.87 46.35C77.73 45.75 77.75 45.72 78.31 45.48C80.77 44.42 83.24 43.35 85.71 42.28C86.1 42.1 86.49 41.92 86.88 41.74C86.91 41.79 86.94 41.83 86.97 41.88C86.3 42.55 85.63 43.23 84.93 43.86ZM91.75 29.97C91.8 31.3 91.72 32.55 91.59 33.79C91.52 34.48 91.37 34.57 90.78 34.22C88.44 32.84 86.04 31.56 83.61 30.37C81.46 29.33 79.22 28.53 76.91 27.94C76.5 27.84 76.11 27.79 75.69 27.84C73.9 28.04 72.09 28.22 70.3 28.46C67.46 28.83 64.63 29.25 61.86 29.97C60.3 30.37 58.9 31.08 57.68 32.17C57.39 32.43 57.09 32.54 56.7 32.44C53.98 31.8 51.4 30.86 49.18 29.1C47.59 27.84 46.36 26.3 45.77 24.31C45.23 22.5 45.23 20.69 45.75 18.85C46.18 17.37 46.99 16.12 48 15.01C48.88 14.03 49.83 13.13 50.92 12.38C51.68 11.86 52.48 11.41 53.33 11.04C56.08 9.84 58.98 9.3 61.94 9.04C65.64 8.73 69.27 9.22 72.88 10C75.23 10.5 77.55 11.16 79.8 12C82.07 12.85 84.15 14.07 85.93 15.75C87.32 17.05 88.6 18.46 89.59 20.13C90.56 21.76 91.04 23.56 91.41 25.4C91.73 26.93 91.82 28.49 91.75 29.97Z" fill="#FFFFFF" fill-opacity="1.000000" fill-rule="nonzero"/>
	<path d="M78.84 14.4C78.19 14.07 77.58 14.17 77.01 14.7C76.29 15.39 76.19 16.07 76.74 16.93C76.98 17.27 77.11 17.58 76.94 18C76.28 19.58 75.34 20.9 73.76 21.64C71.89 22.51 69.89 21.93 68.82 20.15C67.94 18.7 67.49 17.11 67.39 15.42C67.38 15.12 67.49 14.92 67.71 14.76C67.99 14.57 68.2 14.31 68.36 14.01C68.88 13.04 68.51 11.91 67.54 11.44C66.57 10.96 65.45 11.37 65.02 12.34C64.63 13.25 64.91 14.29 65.79 14.75C66.4 15.06 66.59 15.51 66.56 16.14C66.54 16.26 66.56 16.4 66.56 16.46C66.59 17.77 66.26 18.95 65.93 20.12C65.73 20.83 65.35 21.46 64.9 22.03C64.16 22.97 63.16 23.34 62.03 23.07C61.25 22.88 60.49 22.53 59.85 21.98C59.17 21.38 58.5 20.78 57.87 20.13C57.39 19.64 57.13 19.23 57.55 18.51C57.92 17.88 57.65 17.04 57.14 16.59C56.58 16.1 55.87 16.04 55.23 16.42C54.62 16.78 54.34 17.41 54.47 18.15C54.59 18.86 55.18 19.45 55.95 19.51C56.42 19.55 56.68 19.75 56.92 20.15C57.66 21.37 58.18 22.71 58.75 24.01C59.4 25.48 59.9 27.01 60.6 28.46C61.08 29.44 61.17 29.49 62.19 29.23C63.88 28.79 65.6 28.52 67.32 28.27C69.71 27.93 72.12 27.59 74.53 27.37C75.16 27.31 75.37 27.25 75.54 26.44C75.69 25.75 75.87 25.08 76.05 24.4C76.25 23.67 76.47 22.95 76.64 22.22C76.9 21.09 77.12 19.94 77.37 18.78C77.5 18.14 77.71 17.63 78.52 17.6C79.18 17.56 79.75 16.8 79.83 16.14C79.91 15.51 79.46 14.71 78.84 14.4ZM67.71 25.9C66.67 25.85 65.79 24.88 65.83 23.83C65.87 22.77 66.81 21.85 67.85 21.88C68.98 21.9 69.82 22.82 69.79 23.96C69.75 25.08 68.83 25.96 67.71 25.9Z" fill="#E7742E" fill-opacity="1.000000" fill-rule="nonzero"/>
</svg>
