<svg width="27.000000" height="24.000000" viewBox="0 0 27 24" fill="none" xmlns="http://www.w3.org/2000/svg" xmlns:xlink="http://www.w3.org/1999/xlink">
	<desc>
			Created with Pixso.
	</desc>
	<defs/>
	<path d="M13.99 0.5C14.31 0.18 14.74 0 15.18 0C15.63 0 16.06 0.18 16.38 0.5L26.5 10.79C26.82 11.11 27 11.55 27 12.01C27 12.46 26.82 12.9 26.5 13.22L16.38 23.51C16.06 23.83 15.63 24 15.19 23.99C14.75 23.99 14.32 23.81 14.01 23.49C13.7 23.17 13.52 22.74 13.52 22.29C13.51 21.84 13.68 21.41 13.99 21.09L21.23 13.72L1.68 13.72C1.23 13.72 0.81 13.54 0.49 13.22C0.17 12.9 0 12.46 0 12.01C0 11.55 0.17 11.11 0.49 10.79C0.81 10.47 1.23 10.29 1.68 10.29L21.23 10.29L13.99 2.92C13.67 2.6 13.5 2.17 13.5 1.71C13.5 1.26 13.67 0.82 13.99 0.5Z" fill="#E7742E" fill-opacity="1.000000" fill-rule="evenodd"/>
</svg>
